  <svg
    version="1.1"
    xmlns="http://www.w3.org/2000/svg"
    x="0px"
    y="0px"
    viewBox="0 0 1000 1000"
    enableBackground="new 0 0 1000 1000"
    xmlSpace="preserve"
  >
    <g>
      <g transform="translate(0.000000,512.000000) scale(0.100000,-0.100000)">
        <path d="M6971.6,4996.8c-58-25.1-1337.6-1318.3-1353.1-1366.6c-7.7-29,65.7-328.6,210.7-864c123.7-450.4,224.2-831.2,224.2-846.6c0-13.5-228.1-253.2-508.4-533.5l-506.4-506.4H4942c-170.1,0-295.7-79.3-570.2-355.7l-241.6-243.6l518-516.1l516.1-518l241.6,241.6c274.5,274.5,349.9,392.4,369.2,591.5l13.5,119.8l494.8,494.8l494.8,494.8l705.5-195.2c1024.5-280.3,980-270.6,1039.9-247.4c56.1,21.3,1227.4,1175.2,1320.2,1300.9c30.9,40.6,56.1,92.8,56.1,116c0,21.3-170.1,346-376.9,721l-378.8,680.4l32.8,110.2c112.1,390.4-245.5,744.2-626.3,618.5l-98.6-32.9L7768,4637.3c-375,208.8-699.7,378.9-719.1,376.9C7027.7,5014.2,6992.9,5006.5,6971.6,4996.8z M8811.8,3929.8c30.9-29,44.5-63.8,44.5-110.2c0-65.7-79.2-148.8-1614-1683.6l-1614-1614L5518,634.2l-112.1,110.2l1614,1614c1511.6,1509.6,1617.9,1614,1679.7,1614C8742.2,3972.3,8782.8,3956.9,8811.8,3929.8z" />
        <path d="M3689.5-160.3L3502-347.8l518-518l516.1-516.1l193.3,193.3l193.3,193.3l-512.2,512.2c-282.2,282.2-516.1,512.2-521.9,512.2S3793.8-55.9,3689.5-160.3z" />
        <path d="M3067.1-782.7L2873.8-976l518-516.1l516.1-518l183.6,183.6c100.5,100.5,183.6,191.4,183.6,203c0,11.6-228.1,247.4-508.4,527.7l-506.4,506.4L3067.1-782.7z" />
        <path d="M2448.5-1401.2l-174-174l518-518l516.1-516.1l174,174l174,174l-518,518l-516.1,516.1L2448.5-1401.2z" />
        <path d="M1833.8-2015.9c-224.2-230-284.1-338.3-284.1-525.8c0-152.7,23.2-243.5,88.9-338.3l50.3-73.4l-794.4-794.5C183.1-4461.1,100-4550,100-4604.1c0-96.6,75.4-170.1,172-170.1c79.3,0,85,5.8,871.8,792.5c767.4,767.4,792.5,788.6,827.3,755.8c65.7-58,230-108.2,351.8-108.2c201,0,305.4,54.1,539.3,282.2l204.9,199.1l-512.2,512.2c-282.2,284.2-516.1,514.2-523.8,514.2C2025.2-1826.5,1936.3-1911.5,1833.8-2015.9z" />
      </g>
    </g>
  </svg>
