<svg width="213" height="160" viewBox="0 0 213 160" fill="none" xmlns="http://www.w3.org/2000/svg">
<path d="M213 77.9V159.4H117.9L118.9 120.4H77.3C75.4 119.4 71.4 111.6 69.3 111.2C67.4 110.9 65.5 109.2 63.6 108.8C62.5 108.6 61.4 108.5 60.3 108.4C59.1 108.4 58 108 57.4 106.9C54.7 102.7 51.5 99 47.9 95.5C45.9 93.5 44.3 91.2 42.5 89C39.3 85 36.7 80.5 34.2 76.1C32.2 72.6 30.6 69 28.7 65.4C26.8 61.8 24.8 58.3 22.7 54.9C22.2 54.2 21.5 53.4 20.7 53.1C18.4 52.2 17.3 50.4 16.5 48.3C16.3 47.7 16.1 47 15.9 46.4C15.3 44.6 14.6 44 12.7 44.2C10.9 44.3 9.19999 44.7 7.39999 44.9C6.89999 45 6.29999 45.1 5.79999 45.1C4.19999 44.9 3.69999 43.6 4.59999 42.3C5.99999 40.5 5.99999 40.5 3.69999 40C2.09999 39.7 1.39999 38.1 2.49999 36.8C2.99999 36.2 3.69999 35.7 4.49999 35.3C5.69999 34.7 7.09999 34.4 8.29999 33.9C9.29999 33.5 9.49999 33 8.89999 32.1C8.79999 31.9 8.59999 31.6 8.39999 31.4C7.69999 30.7 7.39999 29.9 7.49999 29C7.59999 28.1 7.19999 27.4 6.49999 26.8C5.29999 25.8 3.99999 25 2.39999 24.6C0.499991 24 0.199993 22.4 1.69999 21.1C2.79999 20.1 3.99999 20 5.39999 20.6C8.39999 21.9 11.4 23.1 14.3 24.4C14.7 24.5 15.1 24.7 15.4 24.8C16.7 25.2 17.2 24.7 16.9 23.4C16.8 22.9 16.6 22.5 16.4 22.1C15.4 20.3 14.3 18.6 13.3 16.8C12.9 16 12.4 15.3 12.1 14.5C11.6 13.2 12 12.1 13 11.5C14.2 10.7 15.3 10.8 16.3 11.8C17.2 12.8 18 13.9 18.9 15C19.8 16.1 20.6 17.3 21.6 18.4C23.1 20.2 24.2 22.3 25.2 24.4C25.7 25.5 26.2 26.6 27 27.5C28.3 29.2 29.3 31.1 29.7 33.3C30.2 35.8 31.1 38.3 31.9 40.8C32.5 42.8 33.4 44.6 33.8 46.6C34.4 49.1 35.8 51.1 37.3 53.1C39.4 55.9 41.6 58.6 43.6 61.4C45.1 63.5 46.5 65.7 48.1 67.7C49.2 69 50.5 70.2 51.8 71.3C54.6 73.8 57.5 76.1 60.4 78.5C62 79.8 63.6 81 65.1 82.4C66.5 83.6 67.9 84.9 69 86.3C70.1 87.7 71.5 88.2 73.1 88.2C75.2 88.2 77.3 88.1 79.3 88C79.7 88 80.1 87.8 80.5 87.6C82.7 86.6 84.9 85.8 87.3 86.1C88 86.2 88.6 86 89.3 85.9C90.4 85.9 91.5 86 92.6 85.8C95.4 85.4 98.2 85.2 100.6 83.4C101.5 82.7 102.4 82.4 103.5 82.2C105.4 81.8 107.2 81.2 109 80.6C109.6 80.4 110.2 80.1 110.8 80.1C113.3 79.9 115.6 79.3 117.9 78.5C118.3 78.3 118.7 78.3 119.2 78.3C120.5 78.2 121.9 78.2 123.2 78C123.8 77.9 124.3 77.5 124.8 77.3C125.2 77.1 125.7 76.8 126.1 76.8C127.4 76.8 128.7 76.8 129.9 76.9C131.4 77.1 132.8 77.1 134.3 76.7C135.9 76.3 138.5 75.4 138.7 73.7C138.8 71.9 136.3 70.3 135.4 68.8C134.9 67.9 134.5 67 134 66C133.8 65.7 133.7 65.4 133.4 65.2C132.4 64.6 132.2 63.6 132.1 62.5C131.9 61.3 131.7 60.1 131.3 59C131.2 58.6 130.7 58.2 130.3 58C128.9 57.2 128.5 56.5 128.9 54.9C129 54.5 129.1 54.1 129.3 53.8C130.3 52 130.8 50 130.9 48C131 46.1 130.4 44.3 129.2 42.8C128.9 42.4 128.5 41.7 128.6 41.2C128.8 37.4 129.6 33.7 131.6 30.3C132.6 28.6 133.5 27 133.4 25C133.4 24.5 133.8 24 134.1 23.6C135.1 22.7 136.3 21.9 137.2 21C138.4 19.8 139.7 19.1 141.3 18.7C143.5 18.2 145.7 17.2 148 16.9C164.7 14.2 179 24.7 179.5 40.6C179.5 42.8 179.7 45 178.9 47.1C178 49.3 177.2 51.5 175.7 53.3C175.2 54 174.9 54.8 175.1 55.7C175.7 59 176.2 62.4 176.7 65.7C176.8 66.6 177.3 67.2 178.2 67.5C179.8 68 181.4 68.7 183 69.3L213 77.9Z" fill="black"/>
<path d="M30.6 1.89998C32 1.89998 33.4 1.89998 34.8 1.89998C35.3 1.89998 35.9 1.79998 36.3 1.49998C37.3 0.699979 38.4 0.899979 39.5 0.999979C40.1 0.999979 40.5 1.39998 40.5 1.99998C40.6 2.29998 40.5 2.69998 40.5 3.09998C40.2 5.39998 39.2 5.99998 37 5.39998C36.7 5.29998 36.4 4.89998 36.1 4.69998C35.8 4.49998 35.5 4.09998 35.2 4.09998C33.8 3.99998 32.3 3.89998 30.9 3.79998C27.1 3.59998 22.8 3.69998 19 3.59998C17.5 3.59998 16.1 2.89998 15.6 2.39998C15.9 2.19998 17.6 1.39998 19.7 1.39998C21.2 1.39998 26.9 1.79998 30.6 1.89998Z" fill="black"/>

</svg>
